<?xml version="1.0" encoding="UTF-8"?>
<svg id="Layer_2" data-name="Layer 2" xmlns="http://www.w3.org/2000/svg" viewBox="0 0 217.85 50">
  <defs>
    <style>
      .cls-1 {
        fill: #fff;
      }

      .cls-2 {
        fill: #2d303e;
      }
    </style>
  </defs>
  <g id="Template">
    <g>
      <path class="cls-2" d="M25,49C11.77,49,1,38.23,1,25S11.77,1,25,1h167.85c13.23,0,24,10.77,24,24s-10.77,24-24,24H25Z"/>
      <path class="cls-1" d="M192.85,2c12.68,0,23,10.32,23,23s-10.32,23-23,23H25c-12.68,0-23-10.32-23-23S12.32,2,25,2h167.85M192.85,0H25C11.19,0,0,11.19,0,25s11.19,25,25,25h167.85c13.81,0,25-11.19,25-25S206.65,0,192.85,0h0Z"/>
    </g>
  </g>
</svg>