<?xml version="1.0" encoding="UTF-8"?>
<svg id="Layer_2" data-name="Layer 2" xmlns="http://www.w3.org/2000/svg" viewBox="0 0 21.99 25.09">
  <defs>
    <style>
      .cls-1 {
        fill: #fff;
      }
    </style>
  </defs>
  <g id="Template">
    <g>
      <path class="cls-1" d="M0,12.56v-5.17c0-.26.11-.52.3-.69L7.32.25c.36-.33.91-.33,1.28,0l7.01,6.44c.19.18.3.43.3.69v5.17c0,.82-.98,1.25-1.58.69l-5.73-5.29c-.36-.33-.92-.33-1.28,0L1.58,13.25c-.6.56-1.58.13-1.58-.69Z"/>
      <path class="cls-1" d="M21.99,12.53v5.17c0,.26-.11.52-.3.69l-7.01,6.44c-.36.33-.91.33-1.28,0l-7.01-6.44c-.19-.18-.3-.43-.3-.69v-5.17c0-.82.98-1.25,1.58-.69l5.73,5.29c.36.33.92.33,1.28,0l5.74-5.29c.6-.56,1.58-.13,1.58.69Z"/>
    </g>
  </g>
</svg>