<?xml version="1.0" encoding="UTF-8"?>
<svg id="Layer_2" xmlns="http://www.w3.org/2000/svg" version="1.1" xmlns:xlink="http://www.w3.org/1999/xlink" viewBox="0 0 90.3 55.3">
  <!-- Generator: Adobe Illustrator 29.7.1, SVG Export Plug-In . SVG Version: 2.1.1 Build 8)  -->
  <defs>
    <style>
      .st0 {
        fill: #2d303e;
      }

      .st1 {
        fill: #fff;
      }

      .st2 {
        fill: none;
      }

      .st3 {
        clip-path: url(#clippath);
      }
    </style>
    <clipPath id="clippath">
      <rect class="st2" x="0" y="0" width="90.3" height="55.3"/>
    </clipPath>
  </defs>
  <g id="Bottom_UI">
    <g class="st3">
      <g>
        <path class="st1" d="M-620.7,119.4V53.4H9.9c11.2,0,21.3-6.6,25.7-16.8C45,14.4,66.7,0,90.8,0h497C611.9,0,633.6,14.3,643,36.5c4.3,10.2,14.4,16.8,25.7,16.8h630.6v66H-620.7Z"/>
        <path class="st0" d="M668.7,55.4c-11.9,0-22.8-7-27.5-18-8.8-20.8-29.4-35.3-53.4-35.3H90.8c-24,0-44.5,14.6-53.4,35.3-4.7,11-15.6,18-27.5,18h-630.6v64h1920v-64h-630.6Z"/>
      </g>
    </g>
  </g>
</svg>