<?xml version="1.0" encoding="UTF-8"?>
<svg id="Layer_2" data-name="Layer 2" xmlns="http://www.w3.org/2000/svg" viewBox="0 0 1920 119.36">
  <defs>
    <style>
      .cls-1 {
        fill: #2d303e;
      }

      .cls-2 {
        fill: #fff;
      }
    </style>
  </defs>
  <g id="Bottom_UI" data-name="Bottom UI">
    <path class="cls-2" d="M0,119.36V53.36h630.64c11.25,0,21.33-6.6,25.67-16.82,9.42-22.2,31.09-36.54,55.2-36.54h497c24.11,0,45.77,14.34,55.2,36.54,4.34,10.22,14.41,16.82,25.67,16.82h630.64v66H0Z"/>
    <path class="cls-1" d="M1289.36,55.36c-11.94,0-22.84-7.04-27.51-18.04-8.81-20.76-29.38-35.32-53.36-35.32h-497c-23.98,0-44.54,14.56-53.36,35.32-4.67,10.99-15.56,18.04-27.51,18.04H0v64h1920V55.36h-630.64Z"/>
  </g>
</svg>