<?xml version="1.0" encoding="UTF-8"?>
<svg id="Layer_2" data-name="Layer 2" xmlns="http://www.w3.org/2000/svg" viewBox="0 0 27.02 29.32">
  <defs>
    <style>
      .cls-1 {
        fill: #fff;
      }
    </style>
  </defs>
  <g id="AutoPlay_Popup" data-name="AutoPlay Popup">
    <g>
      <path d="M18.08,28.51l-5.06-7.34-4.19,7.21c-.34.58-.95.93-1.62.93H2c-1.49,0-2.38-1.64-1.58-2.89l7.8-12.08L.34,2.94c-.86-1.24.03-2.94,1.54-2.94h5.53c.61,0,1.19.3,1.54.81l5.06,7.29L18.2.93c.34-.58.95-.93,1.62-.93h5.15c1.5,0,2.39,1.67,1.56,2.91l-7.89,11.85,8.05,11.61c.86,1.24-.03,2.94-1.54,2.94h-5.52c-.62,0-1.19-.3-1.54-.81Z"/>
      <path class="cls-1" d="M18.08,28.51l-5.06-7.34-4.19,7.21c-.34.58-.95.93-1.62.93H2c-1.49,0-2.38-1.64-1.58-2.89l7.8-12.08L.34,2.94c-.86-1.24.03-2.94,1.54-2.94h5.53c.61,0,1.19.3,1.54.81l5.06,7.29L18.2.93c.34-.58.95-.93,1.62-.93h5.15c1.5,0,2.39,1.67,1.56,2.91l-7.89,11.85,8.05,11.61c.86,1.24-.03,2.94-1.54,2.94h-5.52c-.62,0-1.19-.3-1.54-.81Z"/>
    </g>
  </g>
</svg>