<?xml version="1.0" encoding="UTF-8"?>
<svg id="Layer_2" data-name="Layer 2" xmlns="http://www.w3.org/2000/svg" viewBox="0 0 28.93 28.95">
  <defs>
    <style>
      .cls-1 {
        fill: #fff;
      }
    </style>
  </defs>
  <g id="SETTINGS">
    <g>
      <path class="cls-1" d="M0,24.7V7.35c.16-.41.23-.85.4-1.26.68-1.57,2.32-2.74,4.03-2.86,2.28-.16,4.76.12,7.06,0,1.9.41,1.79,3.05-.22,3.22-2.15.18-4.55-.15-6.72,0-.71.14-1.26.7-1.34,1.43v16.45c.1.76.78,1.38,1.55,1.39h16.28c.73-.07,1.3-.62,1.43-1.34.14-2.18-.17-4.56,0-6.72.16-1.97,2.75-2.13,3.21-.27-.09,2.31.16,4.76.02,7.05s-2.12,4.32-4.49,4.49c-5.76-.05-11.53.09-17.28-.07-1.76-.33-3.24-1.66-3.74-3.38l-.2-.79Z"/>
      <path class="cls-1" d="M27.63,0c.68.21,1.17.67,1.29,1.39v10.05c-.16,1.21-1.57,1.84-2.56,1.11-.25-.18-.65-.74-.65-1.05v-5.96l-13.37,13.34c-1.64,1.28-3.55-.7-2.29-2.29L23.4,3.22h-5.96c-.51,0-1.15-.67-1.29-1.14-.28-.95.28-1.73,1.15-2.08h10.34Z"/>
    </g>
  </g>
</svg>