<?xml version="1.0" encoding="UTF-8"?>
<svg id="Layer_2" data-name="Layer 2" xmlns="http://www.w3.org/2000/svg" viewBox="0 0 31.13 26.7">
  <defs>
    <style>
      .cls-1 {
        fill: #fff;
      }
    </style>
  </defs>
  <g id="Volume_Slider" data-name="Volume Slider">
    <g>
      <path class="cls-1" d="M16.97,13.38c0,3.83,0,7.66,0,11.49,0,.99-.55,1.67-1.48,1.82-.55.09-1-.13-1.42-.47-2.15-1.8-4.33-3.58-6.46-5.41-.57-.49-1.12-.75-1.88-.68-.75.06-1.51.02-2.27.01-2.02-.03-3.44-1.45-3.46-3.47-.01-2.21-.01-4.43,0-6.64.01-2.02,1.44-3.43,3.47-3.45.97-.01,1.94-.01,2.9,0,.28,0,.5-.07.72-.26,2.32-1.95,4.66-3.89,6.99-5.83.53-.44,1.1-.62,1.77-.38.71.26,1.12.87,1.12,1.7,0,3.26,0,6.52,0,9.78,0,.6,0,1.19,0,1.79Z"/>
      <path class="cls-1" d="M31.04,17.24c.11.25.12.48.03.73-.09.25-.3.51-.64.83-.31.29-.59.48-.82.58-.24.1-.47.09-.69-.03-.24-.12-.5-.32-.83-.62l-2.35-2.54-2.35,2.54c-.28.3-.53.5-.77.62-.24.12-.48.13-.72.03-.25-.1-.52-.29-.83-.58-.31-.32-.52-.59-.62-.83-.11-.25-.1-.49.02-.74.12-.24.31-.51.6-.8l2.45-2.65-2.47-2.67c-.29-.31-.48-.59-.59-.83-.12-.25-.12-.49-.01-.74.1-.26.31-.53.62-.84.31-.3.59-.49.83-.58.24-.09.48-.07.72.03.24.11.49.32.77.63l2.36,2.56,2.36-2.56c.46-.46.84-.69,1.16-.72.32-.02.71.18,1.16.63.32.32.53.61.63.85.1.25.1.48-.01.72-.11.24-.31.52-.62.84l-2.46,2.65,2.46,2.67c.3.31.5.58.61.81Z"/>
    </g>
  </g>
</svg>