<?xml version="1.0" encoding="UTF-8"?>
<svg id="Layer_2" data-name="Layer 2" xmlns="http://www.w3.org/2000/svg" viewBox="0 0 64.6 72">
  <defs>
    <style>
      .cls-1 {
        fill: #fff;
      }

      .cls-2 {
        fill: #39b54a;
      }
    </style>
  </defs>
  <g id="PlayTable_Popup" data-name="PlayTable Popup">
    <g>
      <path class="cls-2" d="M8.49,71c-3.6,0-7.49-2.86-7.49-7.49V8.49C1,3.86,4.89,1,8.49,1c1.31,0,2.56.34,3.73,1.01l47.65,27.51c2.34,1.35,3.74,3.77,3.74,6.48s-1.4,5.12-3.74,6.48l-47.65,27.51c-1.17.67-2.42,1.01-3.73,1.01h0Z"/>
      <path class="cls-1" d="M8.49,2c1.13,0,2.21.3,3.23.88l23.82,13.75,23.82,13.75c2.03,1.17,3.24,3.27,3.24,5.61s-1.21,4.44-3.24,5.61l-23.82,13.75-23.82,13.75c-1.01.58-2.1.88-3.23.88-3.12,0-6.49-2.48-6.49-6.49V8.49c0-4.01,3.37-6.49,6.49-6.49M8.49,0C4.06,0,0,3.54,0,8.49v55.02c0,4.95,4.06,8.49,8.49,8.49,1.41,0,2.86-.36,4.23-1.15l23.82-13.75,23.82-13.75c5.65-3.26,5.65-11.42,0-14.68l-23.82-13.75L12.72,1.15c-1.37-.79-2.81-1.15-4.23-1.15h0Z"/>
    </g>
  </g>
</svg>