<?xml version="1.0" encoding="UTF-8"?>
<svg id="Layer_2" data-name="Layer 2" xmlns="http://www.w3.org/2000/svg" viewBox="0 0 34.91 36">
  <defs>
    <style>
      .cls-1 {
        fill: #fff;
      }
    </style>
  </defs>
  <g id="Template">
    <path class="cls-1" d="M34.01,22c-.74-.58-1.48-1.16-2.24-1.72-.28-.2-.39-.43-.33-.75.08-.88.09-1.77,0-2.65-.14-.62.13-1.02.63-1.36.72-.49,1.4-1.04,2.07-1.59.75-.62.97-1.35.57-2.06-1.08-1.92-2.18-3.82-3.3-5.71-.37-.63-1.36-.86-2.04-.56-.88.38-1.78.73-2.66,1.11-.41.18-.72.13-1.07-.14-.75-.57-1.56-1.05-2.44-1.39-.38-.15-.5-.39-.56-.75-.13-.87-.27-1.74-.34-2.62-.07-.79-.35-1.48-1.21-1.74-2.4-.09-4.8-.07-7.2,0-.75.18-1.1.73-1.21,1.42-.17,1.01-.29,2.03-.41,3.04-.03.31-.14.48-.44.61-.98.41-1.89.93-2.73,1.58-.26.2-.46.19-.74.07-.84-.36-1.69-.71-2.54-1.05-1.15-.46-1.97-.17-2.58.88-.95,1.65-1.86,3.32-2.87,4.93-.66,1.06-.4,1.69.5,2.47.57.5,1.16.98,1.8,1.37.67.41.88.92.73,1.65-.07.69-.07,1.39,0,2.08.14.65-.04,1.12-.64,1.49-.7.43-1.34.97-1.97,1.49-.94.77-1.03,1.32-.43,2.36.97,1.69,1.94,3.37,2.92,5.06.62,1.07,1.32,1.32,2.47.85.87-.35,1.74-.7,2.6-1.08.28-.12.49-.15.75.05.85.67,1.79,1.19,2.78,1.61.24.1.35.23.38.5.08.84.14,1.69.29,2.52.14.79.25,1.65,1.21,1.96,2.46.1,4.91.07,7.37.02.66-.17.99-.67,1.09-1.28.17-1.03.3-2.07.38-3.11.02-.33.11-.47.4-.59,1-.41,1.94-.94,2.8-1.6.24-.18.44-.25.74-.11.85.39,1.74.7,2.6,1.09,1.08.48,1.88.25,2.47-.78.97-1.67,1.93-3.33,2.89-5,.63-1.1.5-1.78-.49-2.56ZM24.83,18.84c-.29,3.3-3.26,6.9-8.23,6.6-2.95-.18-6.35-3.51-6.56-6.53-.35-5.04,3.36-7.94,6.47-8.24.61-.08,1.21-.07,1.82,0,2.96.44,5,2.04,6.09,4.83.21.53.35,1.09.39,1.66.08.56.07,1.12,0,1.68Z"/>
  </g>
</svg>