<?xml version="1.0" encoding="UTF-8"?>
<svg id="Layer_2" data-name="Layer 2" xmlns="http://www.w3.org/2000/svg" viewBox="0 0 159.92 155.88">
  <defs>
    <style>
      .cls-1 {
        fill: #fff;
      }
    </style>
  </defs>
  <g id="Template">
    <g>
      <path class="cls-1" d="M132.42,54.57h0c1.51-.42,2.26-2.11,1.56-3.51l-.36-.72c-9.33-18.75-28.79-31.79-49.58-33.23-1.41-.1-2.84-.15-4.26-.15-23.32,0-44.49,13.55-54.7,34.36-.72,1.47-2.63,1.87-3.87.8l-10.77-9.31s.02-.04.03-.06c.09-.18.17-.36.24-.52C19.35,22.58,43.01,5.28,66.99,1.09c4.12-.72,8.36-1.09,12.59-1.09,30.93,0,59.59,18.71,71.31,46.56l.23.54c.49,1.16,1.76,1.77,2.97,1.43l2.67-.74c1.93-.54,3.68,1.31,3.03,3.21l-7.32,21.4c-.57,1.67-2.65,2.23-3.98,1.08l-17.01-14.62c-1.51-1.3-.96-3.76.96-4.29Z"/>
      <path class="cls-1" d="M80.19,155.88c-30.97,0-59.6-18.71-71.25-46.55l-.22-.54c-.49-1.16-1.76-1.78-2.97-1.44l-2.58.72c-1.92.53-3.66-1.29-3.04-3.18l6.97-21.2c.55-1.69,2.65-2.27,3.99-1.11l16.92,14.54c1.51,1.3.96,3.76-.96,4.29h-.01c-1.52.43-2.27,2.14-1.55,3.55l.37.72c10.58,20.49,31.37,33.22,54.25,33.22,17.11,0,33.04-7.06,44.84-19.89,4.21-4.58,7.31-9.64,9.76-14.52.73-1.46,2.63-1.84,3.86-.76l10.76,9.39s-.24.5-.24.5c-9.27,20.2-32.54,37.15-56.59,41.23-4.04.69-8.2,1.03-12.34,1.03Z"/>
    </g>
  </g>
</svg>