<?xml version="1.0" encoding="UTF-8"?>
<svg id="Layer_2" data-name="Layer 2" xmlns="http://www.w3.org/2000/svg" viewBox="0 0 33.93 30.75">
  <defs>
    <style>
      .cls-1 {
        fill: #fff;
      }
    </style>
  </defs>
  <g id="Template">
    <g>
      <path class="cls-1" d="M16.97,15.4c0,3.83,0,7.66,0,11.49,0,.99-.55,1.67-1.48,1.82-.55.09-1-.13-1.42-.47-2.15-1.8-4.33-3.58-6.46-5.41-.57-.49-1.12-.75-1.88-.68-.75.06-1.51.02-2.27.01-2.02-.03-3.44-1.45-3.46-3.47-.01-2.21-.01-4.43,0-6.64.01-2.02,1.44-3.43,3.47-3.45.97-.01,1.94-.01,2.9,0,.28,0,.5-.07.72-.26,2.32-1.95,4.66-3.89,6.99-5.83.53-.44,1.1-.62,1.77-.38.71.26,1.12.87,1.12,1.7,0,3.26,0,6.52,0,9.78,0,.6,0,1.19,0,1.79Z"/>
      <path class="cls-1" d="M33.93,16.42c-.26,5.73-3.27,10.82-9.26,14.07-.95.52-1.97.22-2.42-.66-.45-.88-.09-1.85.87-2.36,4.06-2.17,6.53-5.52,7.27-10.07.93-5.74-2.02-11.43-7.23-14.13-1.13-.59-1.44-1.82-.68-2.7.53-.61,1.36-.76,2.13-.37,3,1.53,5.37,3.76,7.06,6.67,1.52,2.62,2.27,5.46,2.27,9.53Z"/>
      <path class="cls-1" d="M27.16,15.37c-.03,2.21-.66,4.21-1.95,5.99-.62.85-1.64,1.05-2.43.49-.79-.57-.93-1.57-.35-2.43,1.79-2.64,1.79-5.45.01-8.08-.6-.88-.45-1.89.36-2.45.79-.55,1.8-.35,2.4.49,1.3,1.79,1.94,3.8,1.96,5.99Z"/>
    </g>
  </g>
</svg>